<svg xmlns="http://www.w3.org/2000/svg" viewBox="0 0 1024 1024" width="1024" height="1024">
  <defs>
    <linearGradient id="grad2_a" x1="0%" y1="100%" x2="50%" y2="0%">
      <stop offset="0%" stop-color="#15803d" />
      <stop offset="40%" stop-color="#84cc16" />
      <stop offset="100%" stop-color="#bef264" />
    </linearGradient>
    <linearGradient id="grad2_c" x1="0%" y1="0%" x2="100%" y2="100%">
      <stop offset="0%" stop-color="#38bdf8" />
      <stop offset="50%" stop-color="#06b6d4" />
      <stop offset="100%" stop-color="#10b981" />
    </linearGradient>
    <linearGradient id="grad2_arrow" x1="0%" y1="0%" x2="100%" y2="0%">
      <stop offset="0%" stop-color="#bef264" />
      <stop offset="100%" stop-color="#ffffff" />
    </linearGradient>
    <filter id="glow2" x="-20%" y="-20%" width="140%" height="140%">
      <feDropShadow dx="0" dy="16" stdDeviation="28" flood-color="#84cc16" flood-opacity="0.3" />
      <feDropShadow dx="0" dy="6" stdDeviation="12" flood-color="#06b6d4" flood-opacity="0.2" />
    </filter>
  </defs>

  <g filter="url(#glow2)">
    <!-- The "C" Orbit Ring with Integrated Arrow -->
    <path d="M 620,200 C 360,180 140,320 140,540 C 140,760 350,880 620,860 C 760,850 870,760 900,660"
          fill="none" stroke="url(#grad2_c)" stroke-width="84" stroke-linecap="round" />
    
    <!-- "C" Arrowhead pointing at apex -->
    <polygon points="620,120 740,210 610,280" fill="#38bdf8" />

    <!-- The "A" Delta Arrow / Monogram -->
    <!-- Left Leg -->
    <path d="M 280,840 L 512,240 L 744,840" 
          fill="none" stroke="url(#grad2_a)" stroke-width="88" stroke-linecap="round" stroke-linejoin="round" />

    <!-- "A" Horizontal Tech Bridge (Conversion Bar) -->
    <path d="M 370,620 L 654,620" 
          fill="none" stroke="#ffffff" stroke-width="48" stroke-linecap="round" />
    
    <!-- Conversion Arrow on Bridge -->
    <polygon points="690,620 620,580 620,660" fill="#84cc16" />

    <!-- Apex Delta Glow -->
    <polygon points="512,140 590,260 434,260" fill="url(#grad2_arrow)" filter="drop-shadow(0 4px 12px rgba(132,204,22,0.6))" />
  </g>
</svg>