<svg xmlns="http://www.w3.org/2000/svg" viewBox="0 0 1024 1024" width="1024" height="1024">
  <defs>
    <linearGradient id="grad5_top" x1="0%" y1="100%" x2="100%" y2="0%">
      <stop offset="0%" stop-color="#84cc16" />
      <stop offset="100%" stop-color="#bef264" />
    </linearGradient>
    <linearGradient id="grad5_left" x1="0%" y1="0%" x2="100%" y2="100%">
      <stop offset="0%" stop-color="#38bdf8" />
      <stop offset="100%" stop-color="#0284c7" />
    </linearGradient>
    <linearGradient id="grad5_right" x1="100%" y1="0%" x2="0%" y2="100%">
      <stop offset="0%" stop-color="#10b981" />
      <stop offset="100%" stop-color="#047857" />
    </linearGradient>
    <filter id="glow5" x="-20%" y="-20%" width="140%" height="140%">
      <feDropShadow dx="0" dy="18" stdDeviation="30" flood-color="#84cc16" flood-opacity="0.35" />
    </filter>
  </defs>

  <g filter="url(#glow5)" transform="translate(512, 512)">
    <!-- Top Face (Isometric Diamond) -->
    <polygon points="0,-360 312,-180 0,0 -312,-180" fill="url(#grad5_top)" stroke="#bef264" stroke-width="6" />
    <!-- Conversion Arrow on Top Face -->
    <path d="M -120,-180 L 120,-180 M 70,-220 L 130,-180 L 70,-140" fill="none" stroke="#0f172a" stroke-width="28" stroke-linecap="round" stroke-linejoin="round" />

    <!-- Left Face (Documents & Media) -->
    <polygon points="-312,-180 0,0 0,360 -312,180" fill="url(#grad5_left)" stroke="#38bdf8" stroke-width="6" />
    <!-- Downward Ingestion Arrow on Left Face -->
    <path d="M -156,-30 L -156,150 M -200,100 L -156,160 L -112,100" fill="none" stroke="#ffffff" stroke-width="26" stroke-linecap="round" stroke-linejoin="round" />

    <!-- Right Face (Processed Output) -->
    <polygon points="0,0 312,-180 312,180 0,360" fill="url(#grad5_right)" stroke="#34d399" stroke-width="6" />
    <!-- Upward Export Arrow on Right Face -->
    <path d="M 156,150 L 156,-30 M 112,20 L 156,-40 L 200,20" fill="none" stroke="#bef264" stroke-width="26" stroke-linecap="round" stroke-linejoin="round" />

    <!-- Center Isometric Nexus Joint -->
    <circle cx="0" cy="0" r="28" fill="#ffffff" filter="drop-shadow(0 0 16px #a3e635)" />
  </g>
</svg>